<svg width="34" height="34" viewBox="0 0 34 34" fill="none" xmlns="http://www.w3.org/2000/svg">
<path d="M17 1C8.1632 1 1 8.1632 1 17C1 25.8368 8.1632 33 17 33C25.8368 33 33 25.8368 33 17C33 8.1632 25.8368 1 17 1Z" stroke="black" stroke-width="1.5" stroke-linecap="round" stroke-linejoin="round"/>
<path d="M4.63354 27.154C4.63354 27.154 8.19995 22.6004 16.9999 22.6004C25.7999 22.6004 29.3679 27.154 29.3679 27.154M16.9999 17.0004C18.273 17.0004 19.4939 16.4947 20.3941 15.5945C21.2942 14.6943 21.7999 13.4734 21.7999 12.2004C21.7999 10.9274 21.2942 9.70645 20.3941 8.80628C19.4939 7.9061 18.273 7.40039 16.9999 7.40039C15.7269 7.40039 14.506 7.9061 13.6058 8.80628C12.7057 9.70645 12.1999 10.9274 12.1999 12.2004C12.1999 13.4734 12.7057 14.6943 13.6058 15.5945C14.506 16.4947 15.7269 17.0004 16.9999 17.0004Z" stroke="black" stroke-width="1.5" stroke-linecap="round" stroke-linejoin="round"/>
</svg>
